<mxfile host="Electron" agent="Mozilla/5.0 (Macintosh; Intel Mac OS X 10_15_7) AppleWebKit/537.36 (KHTML, like Gecko) draw.io/26.0.3 Chrome/130.0.6723.137 Electron/33.2.1 Safari/537.36" version="26.0.3">
  <diagram name="Page-1" id="spQlg_e2fzMX-p9ykQXZ">
    <mxGraphModel dx="14883" dy="833" grid="1" gridSize="10" guides="1" tooltips="1" connect="1" arrows="1" fold="1" page="1" pageScale="1" pageWidth="850" pageHeight="1100" math="0" shadow="0">
      <root>
        <mxCell id="0" />
        <mxCell id="1" parent="0" />
        <mxCell id="93p2crJ9IyBUAe-qTAvb-1" value="&lt;div style=&quot;color: rgb(212, 212, 212); background-color: rgb(30, 30, 30); font-family: Menlo, Monaco, &amp;quot;Courier New&amp;quot;, monospace; font-size: 18px; line-height: 27px; white-space: pre;&quot;&gt;two_sample_test&lt;/div&gt;" style="rounded=0;whiteSpace=wrap;html=1;" parent="1" vertex="1">
          <mxGeometry x="460" y="270" width="230" height="60" as="geometry" />
        </mxCell>
        <mxCell id="93p2crJ9IyBUAe-qTAvb-7" value="&lt;div style=&quot;color: rgb(212, 212, 212); background-color: rgb(30, 30, 30); font-family: Menlo, Monaco, &amp;quot;Courier New&amp;quot;, monospace; font-size: 18px; line-height: 27px; white-space: pre;&quot;&gt;&lt;div style=&quot;line-height: 27px;&quot;&gt;fea_test&lt;/div&gt;&lt;div style=&quot;line-height: 27px;&quot;&gt;&lt;div style=&quot;line-height: 27px;&quot;&gt;fea_real&lt;/div&gt;&lt;div style=&quot;line-height: 27px;&quot;&gt;&lt;div style=&quot;line-height: 27px;&quot;&gt;fea_generated&lt;/div&gt;&lt;/div&gt;&lt;/div&gt;&lt;/div&gt;" style="rounded=0;whiteSpace=wrap;html=1;" parent="1" vertex="1">
          <mxGeometry x="460" y="350" width="230" height="130" as="geometry" />
        </mxCell>
        <mxCell id="93p2crJ9IyBUAe-qTAvb-8" value="&lt;div style=&quot;color: rgb(212, 212, 212); background-color: rgb(30, 30, 30); font-family: Menlo, Monaco, &amp;quot;Courier New&amp;quot;, monospace; font-size: 18px; line-height: 27px; white-space: pre;&quot;&gt;&lt;div style=&quot;line-height: 27px;&quot;&gt;&lt;div style=&quot;line-height: 27px;&quot;&gt;fea_test&lt;/div&gt;&lt;/div&gt;&lt;div style=&quot;line-height: 27px;&quot;&gt;&lt;div style=&quot;line-height: 27px;&quot;&gt;fea_real&lt;/div&gt;&lt;div style=&quot;line-height: 27px;&quot;&gt;&lt;div style=&quot;line-height: 27px;&quot;&gt;fea_generated&lt;/div&gt;&lt;/div&gt;&lt;/div&gt;&lt;/div&gt;" style="rounded=0;whiteSpace=wrap;html=1;" parent="1" vertex="1">
          <mxGeometry x="170" y="350" width="230" height="130" as="geometry" />
        </mxCell>
        <mxCell id="93p2crJ9IyBUAe-qTAvb-9" value="&lt;div style=&quot;color: rgb(212, 212, 212); background-color: rgb(30, 30, 30); font-family: Menlo, Monaco, &amp;quot;Courier New&amp;quot;, monospace; font-size: 18px; line-height: 27px; white-space: pre;&quot;&gt;&lt;div style=&quot;line-height: 27px;&quot;&gt;&lt;div style=&quot;line-height: 27px;&quot;&gt;&lt;div style=&quot;line-height: 27px;&quot;&gt;random.sample(fea_real_ls, len(fea_real_ls))&lt;/div&gt;&lt;div style=&quot;line-height: 27px;&quot;&gt;&lt;div style=&quot;line-height: 27px;&quot;&gt;random.sample(fea_generated_ls, len(fea_generated_ls))&lt;/div&gt;&lt;/div&gt;&lt;/div&gt;&lt;div style=&quot;line-height: 27px;&quot;&gt;random.sample(fea_test_ls, len(fea_test_ls))&lt;/div&gt;&lt;/div&gt;&lt;/div&gt;" style="rounded=0;whiteSpace=wrap;html=1;" parent="1" vertex="1">
          <mxGeometry x="-260" y="210" width="660" height="120" as="geometry" />
        </mxCell>
        <mxCell id="93p2crJ9IyBUAe-qTAvb-11" value="&lt;div style=&quot;color: rgb(212, 212, 212); background-color: rgb(30, 30, 30); font-family: Menlo, Monaco, &amp;quot;Courier New&amp;quot;, monospace; font-size: 18px; line-height: 27px; white-space: pre;&quot;&gt;&lt;div style=&quot;line-height: 27px;&quot;&gt;&lt;div style=&quot;line-height: 27px;&quot;&gt;&lt;div style=&quot;line-height: 27px;&quot;&gt;&lt;span style=&quot;color: rgba(0, 0, 0, 0); font-family: monospace; font-size: 0px; text-align: start; white-space-collapse: collapse; background-color: rgb(251, 251, 251);&quot;&gt;%3CmxGraphModel%3E%3Croot%3E%3CmxCell%20id%3D%220%22%2F%3E%3CmxCell%20id%3D%221%22%20parent%3D%220%22%2F%3E%3CmxCell%20id%3D%222%22%20value%3D%22%26lt%3Bdiv%20style%3D%26quot%3Bcolor%3A%20rgb(212%2C%20212%2C%20212)%3B%20background-color%3A%20rgb(30%2C%2030%2C%2030)%3B%20font-family%3A%20Menlo%2C%20Monaco%2C%20%26amp%3Bquot%3BCourier%20New%26amp%3Bquot%3B%2C%20monospace%3B%20font-size%3A%2018px%3B%20line-height%3A%2027px%3B%20white-space%3A%20pre%3B%26quot%3B%26gt%3B%26lt%3Bdiv%20style%3D%26quot%3Bline-height%3A%2027px%3B%26quot%3B%26gt%3B%26lt%3Bdiv%20style%3D%26quot%3Bline-height%3A%2027px%3B%26quot%3B%26gt%3B%26lt%3Bdiv%20style%3D%26quot%3Bline-height%3A%2027px%3B%26quot%3B%26gt%3Brandom.sample(fea_real_ls%2C%20len(fea_real_ls))%26lt%3B%2Fdiv%26gt%3B%26lt%3Bdiv%20style%3D%26quot%3Bline-height%3A%2027px%3B%26quot%3B%26gt%3B%26lt%3Bdiv%20style%3D%26quot%3Bline-height%3A%2027px%3B%26quot%3B%26gt%3Brandom.sample(fea_generated_ls%2C%20len(fea_generated_ls))%26lt%3B%2Fdiv%26gt%3B%26lt%3B%2Fdiv%26gt%3B%26lt%3B%2Fdiv%26gt%3B%26lt%3Bdiv%20style%3D%26quot%3Bline-height%3A%2027px%3B%26quot%3B%26gt%3Brandom.sample(fea_test_ls%2C%20len(fea_test_ls))%26lt%3B%2Fdiv%26gt%3B%26lt%3B%2Fdiv%26gt%3B%26lt%3B%2Fdiv%26gt%3B%22%20style%3D%22rounded%3D0%3BwhiteSpace%3Dwrap%3Bhtml%3D1%3B%22%20vertex%3D%221%22%20parent%3D%221%22%3E%3CmxGeometry%20x%3D%22-260%22%20y%3D%22210%22%20width%3D%22660%22%20height%3D%22120%22%20as%3D%22geometry%22%2F%3E%3C%2FmxCell%3E%3C%2Froot%3E%3C%2FmxGraphModel%3E&lt;/span&gt;&lt;span style=&quot;background-color: light-dark(rgb(30, 30, 30), rgb(30, 30, 30)); color: light-dark(rgb(212, 212, 212), rgb(212, 212, 212));&quot;&gt;fea_test_ls.extend(fea_test)&lt;/span&gt;&lt;/div&gt;&lt;div style=&quot;line-height: 27px;&quot;&gt;&lt;div style=&quot;line-height: 27px;&quot;&gt;fea_real_ls.extend(fea_real)&lt;/div&gt;&lt;div style=&quot;line-height: 27px;&quot;&gt;&lt;div style=&quot;line-height: 27px;&quot;&gt;fea_generated_ls.extend(fea_generated)&lt;/div&gt;&lt;/div&gt;&lt;/div&gt;&lt;/div&gt;&lt;/div&gt;&lt;/div&gt;" style="rounded=0;whiteSpace=wrap;html=1;" parent="1" vertex="1">
          <mxGeometry x="-1030" y="210" width="660" height="120" as="geometry" />
        </mxCell>
        <mxCell id="93p2crJ9IyBUAe-qTAvb-14" value="&lt;div style=&quot;color: rgb(212, 212, 212); background-color: rgb(30, 30, 30); font-family: Menlo, Monaco, &amp;quot;Courier New&amp;quot;, monospace; font-size: 18px; line-height: 27px; white-space: pre;&quot;&gt;&lt;div style=&quot;line-height: 27px;&quot;&gt;&lt;div style=&quot;line-height: 27px;&quot;&gt;&lt;div style=&quot;text-align: left;&quot;&gt;&lt;span style=&quot;color: rgb(212, 212, 212);&quot;&gt;&lt;span style=&quot;white-space: pre;&quot;&gt;&#x9;&lt;/span&gt;&lt;span style=&quot;white-space: pre;&quot;&gt;&#x9;&lt;/span&gt;fea_test = &lt;/span&gt;&lt;span style=&quot;color: light-dark(rgb(212, 212, 212), rgb(212, 212, 212)); background-color: light-dark(rgb(30, 30, 30), rgb(30, 30, 30));&quot;&gt;[&lt;/span&gt;&lt;/div&gt;&lt;div style=&quot;text-align: left;&quot;&gt;&lt;span style=&quot;color: rgb(212, 212, 212);&quot;&gt;                    fea_get(pa_ls, max_length=args.max_length, print_fea_dim=&lt;/span&gt;&lt;span style=&quot;color: rgb(86, 156, 214);&quot;&gt;False&lt;/span&gt;&lt;span style=&quot;color: rgb(212, 212, 212);&quot;&gt;)&lt;/span&gt;&lt;/div&gt;&lt;div style=&quot;text-align: left;&quot;&gt;&lt;span style=&quot;color: rgb(212, 212, 212);&quot;&gt;                    &lt;/span&gt;&lt;span style=&quot;color: rgb(86, 156, 214);&quot;&gt;for&lt;/span&gt;&lt;span style=&quot;color: rgb(212, 212, 212);&quot;&gt; pa_ls &lt;/span&gt;&lt;span style=&quot;color: rgb(86, 156, 214);&quot;&gt;in&lt;/span&gt;&lt;span style=&quot;color: rgb(212, 212, 212);&quot;&gt; test_data_temp_seletced&lt;/span&gt;&lt;/div&gt;&lt;div style=&quot;text-align: left; line-height: 27px;&quot;&gt;&lt;span style=&quot;background-color: light-dark(rgb(30, 30, 30), rgb(30, 30, 30)); color: light-dark(rgb(212, 212, 212), rgb(212, 212, 212));&quot;&gt;&lt;span style=&quot;white-space: pre;&quot;&gt;&#x9;&lt;span style=&quot;white-space: pre;&quot;&gt;&#x9;&lt;/span&gt;&lt;/span&gt;]&lt;/span&gt;&lt;/div&gt;&lt;div style=&quot;text-align: left; line-height: 27px;&quot;&gt;&lt;div&gt;&lt;span style=&quot;color: rgb(212, 212, 212);&quot;&gt;                fea_real = [&lt;/span&gt;&lt;/div&gt;&lt;div&gt;&lt;span style=&quot;color: rgb(212, 212, 212);&quot;&gt;                    fea_get(pa_ls, max_length=args.max_length, print_fea_dim=&lt;/span&gt;&lt;span style=&quot;color: rgb(86, 156, 214);&quot;&gt;False&lt;/span&gt;&lt;span style=&quot;color: rgb(212, 212, 212);&quot;&gt;)&lt;/span&gt;&lt;/div&gt;&lt;div&gt;&lt;span style=&quot;color: rgb(212, 212, 212);&quot;&gt;                    &lt;/span&gt;&lt;span style=&quot;color: rgb(86, 156, 214);&quot;&gt;for&lt;/span&gt;&lt;span style=&quot;color: rgb(212, 212, 212);&quot;&gt; pa_ls &lt;/span&gt;&lt;span style=&quot;color: rgb(86, 156, 214);&quot;&gt;in&lt;/span&gt;&lt;span style=&quot;color: rgb(212, 212, 212);&quot;&gt; text_real&lt;/span&gt;&lt;/div&gt;&lt;div&gt;&lt;span style=&quot;color: rgb(212, 212, 212);&quot;&gt;                ]&lt;/span&gt;&lt;/div&gt;&lt;div&gt;&lt;span style=&quot;color: rgb(212, 212, 212);&quot;&gt;                fea_generated = [&lt;/span&gt;&lt;/div&gt;&lt;div&gt;&lt;span style=&quot;color: rgb(212, 212, 212);&quot;&gt;                    fea_get(pa_ls, max_length=args.max_length, print_fea_dim=&lt;/span&gt;&lt;span style=&quot;color: rgb(86, 156, 214);&quot;&gt;False&lt;/span&gt;&lt;span style=&quot;color: rgb(212, 212, 212);&quot;&gt;)&lt;/span&gt;&lt;/div&gt;&lt;div&gt;&lt;span style=&quot;color: rgb(212, 212, 212);&quot;&gt;                    &lt;/span&gt;&lt;span style=&quot;color: rgb(86, 156, 214);&quot;&gt;for&lt;/span&gt;&lt;span style=&quot;color: rgb(212, 212, 212);&quot;&gt; pa_ls &lt;/span&gt;&lt;span style=&quot;color: rgb(86, 156, 214);&quot;&gt;in&lt;/span&gt;&lt;span style=&quot;color: rgb(212, 212, 212);&quot;&gt; text_generated&lt;/span&gt;&lt;/div&gt;&lt;div&gt;&lt;span style=&quot;color: rgb(212, 212, 212);&quot;&gt;                ]&lt;/span&gt;&lt;/div&gt;&lt;/div&gt;&lt;/div&gt;&lt;/div&gt;&lt;/div&gt;" style="rounded=0;whiteSpace=wrap;html=1;" parent="1" vertex="1">
          <mxGeometry x="-2220" y="210" width="1100" height="430" as="geometry" />
        </mxCell>
        <mxCell id="93p2crJ9IyBUAe-qTAvb-15" value="&lt;div style=&quot;color: rgb(212, 212, 212); background-color: rgb(30, 30, 30); font-family: Menlo, Monaco, &amp;quot;Courier New&amp;quot;, monospace; font-size: 18px; line-height: 27px; white-space: pre;&quot;&gt;&lt;div style=&quot;line-height: 27px;&quot;&gt;&lt;div style=&quot;line-height: 27px;&quot;&gt;&lt;div style=&quot;text-align: left;&quot;&gt;&lt;div style=&quot;line-height: 27px;&quot;&gt;&lt;div&gt;            text_real = real_data_temp_seletced[&lt;/div&gt;&lt;div&gt;                args.val_num : args.val_num + test_lenth&lt;/div&gt;&lt;div&gt;            ]&lt;/div&gt;&lt;div&gt;            text_generated = generated_data_temp_seletced[&lt;/div&gt;&lt;div&gt;                args.val_num : args.val_num + test_lenth&lt;/div&gt;&lt;div&gt;            ]&lt;/div&gt;&lt;/div&gt;&lt;/div&gt;&lt;/div&gt;&lt;/div&gt;&lt;/div&gt;" style="rounded=0;whiteSpace=wrap;html=1;" parent="1" vertex="1">
          <mxGeometry x="-3430" y="210" width="1100" height="430" as="geometry" />
        </mxCell>
        <mxCell id="93p2crJ9IyBUAe-qTAvb-16" value="&lt;div style=&quot;color: rgb(212, 212, 212); background-color: rgb(30, 30, 30); font-family: Menlo, Monaco, &amp;quot;Courier New&amp;quot;, monospace; font-size: 18px; line-height: 27px; white-space: pre;&quot;&gt;&lt;div style=&quot;line-height: 27px;&quot;&gt;&lt;div style=&quot;line-height: 27px;&quot;&gt;&lt;div style=&quot;text-align: left;&quot;&gt;&lt;div style=&quot;line-height: 27px;&quot;&gt;&lt;div style=&quot;line-height: 27px;&quot;&gt;&lt;div&gt;                    real_data_temp_seletced = [&lt;/div&gt;&lt;div&gt;                        pa_ls&lt;/div&gt;&lt;div&gt;                        &lt;span style=&quot;color: #569cd6;&quot;&gt;for&lt;/span&gt; pa_ls &lt;span style=&quot;color: #569cd6;&quot;&gt;in&lt;/span&gt; real_data_temp&lt;/div&gt;&lt;div&gt;                        &lt;span style=&quot;color: #569cd6;&quot;&gt;if&lt;/span&gt; len(pa_ls) &amp;gt;= sentence_num&lt;/div&gt;&lt;div&gt;                    ]&lt;/div&gt;&lt;div&gt;                    generated_data_temp_seletced = [&lt;/div&gt;&lt;div&gt;                        pa_ls&lt;/div&gt;&lt;div&gt;                        &lt;span style=&quot;color: #569cd6;&quot;&gt;for&lt;/span&gt; pa_ls &lt;span style=&quot;color: #569cd6;&quot;&gt;in&lt;/span&gt; generated_data_temp&lt;/div&gt;&lt;div&gt;                        &lt;span style=&quot;color: #569cd6;&quot;&gt;if&lt;/span&gt; len(pa_ls) &amp;gt;= sentence_num&lt;/div&gt;&lt;div&gt;                    ]&lt;/div&gt;&lt;/div&gt;&lt;/div&gt;&lt;/div&gt;&lt;/div&gt;&lt;/div&gt;&lt;/div&gt;" style="rounded=0;whiteSpace=wrap;html=1;" parent="1" vertex="1">
          <mxGeometry x="-4600" y="210" width="1100" height="430" as="geometry" />
        </mxCell>
        <mxCell id="93p2crJ9IyBUAe-qTAvb-17" value="&lt;div style=&quot;color: rgb(212, 212, 212); background-color: rgb(30, 30, 30); font-family: Menlo, Monaco, &amp;quot;Courier New&amp;quot;, monospace; font-size: 18px; line-height: 27px; white-space: pre;&quot;&gt;&lt;div style=&quot;line-height: 27px;&quot;&gt;&lt;div style=&quot;line-height: 27px;&quot;&gt;&lt;div style=&quot;text-align: left;&quot;&gt;&lt;div style=&quot;line-height: 27px;&quot;&gt;&lt;div style=&quot;line-height: 27px;&quot;&gt;&lt;div style=&quot;line-height: 27px;&quot;&gt;&lt;div&gt;                    real_data_temp = [&lt;/div&gt;&lt;div&gt;                        [&lt;/div&gt;&lt;div&gt;                            sentence&lt;/div&gt;&lt;div&gt;                            &lt;span style=&quot;color: #569cd6;&quot;&gt;for&lt;/span&gt; sentence &lt;span style=&quot;color: #569cd6;&quot;&gt;in&lt;/span&gt; sublist&lt;/div&gt;&lt;div&gt;                            &lt;span style=&quot;color: #569cd6;&quot;&gt;if&lt;/span&gt; len(sentence.split()) &amp;gt;= &lt;span style=&quot;color: #b5cea8;&quot;&gt;5&lt;/span&gt;&lt;/div&gt;&lt;div&gt;                        ]&lt;/div&gt;&lt;div&gt;                        &lt;span style=&quot;color: #569cd6;&quot;&gt;for&lt;/span&gt; sublist &lt;span style=&quot;color: #569cd6;&quot;&gt;in&lt;/span&gt; real_data[train_real_length:]&lt;/div&gt;&lt;div&gt;                    ]&lt;/div&gt;&lt;div&gt;                    generated_data_temp = [&lt;/div&gt;&lt;div&gt;                        [&lt;/div&gt;&lt;div&gt;                            sentence&lt;/div&gt;&lt;div&gt;                            &lt;span style=&quot;color: #569cd6;&quot;&gt;for&lt;/span&gt; sentence &lt;span style=&quot;color: #569cd6;&quot;&gt;in&lt;/span&gt; sublist&lt;/div&gt;&lt;div&gt;                            &lt;span style=&quot;color: #569cd6;&quot;&gt;if&lt;/span&gt; len(sentence.split()) &amp;gt;= &lt;span style=&quot;color: #b5cea8;&quot;&gt;5&lt;/span&gt;&lt;/div&gt;&lt;div&gt;                        ]&lt;/div&gt;&lt;div&gt;                        &lt;span style=&quot;color: #569cd6;&quot;&gt;for&lt;/span&gt; sublist &lt;span style=&quot;color: #569cd6;&quot;&gt;in&lt;/span&gt; generated_data[train_length:]&lt;/div&gt;&lt;div&gt;                    ]&lt;/div&gt;&lt;/div&gt;&lt;/div&gt;&lt;/div&gt;&lt;/div&gt;&lt;/div&gt;&lt;/div&gt;&lt;/div&gt;" style="rounded=0;whiteSpace=wrap;html=1;" parent="1" vertex="1">
          <mxGeometry x="-5780" y="210" width="1100" height="530" as="geometry" />
        </mxCell>
        <mxCell id="93p2crJ9IyBUAe-qTAvb-18" value="&lt;div style=&quot;color: rgb(212, 212, 212); background-color: rgb(30, 30, 30); font-family: Menlo, Monaco, &amp;quot;Courier New&amp;quot;, monospace; font-size: 18px; line-height: 27px; white-space: pre;&quot;&gt;&lt;div style=&quot;line-height: 27px;&quot;&gt;&lt;div style=&quot;line-height: 27px;&quot;&gt;&lt;div style=&quot;text-align: left;&quot;&gt;&lt;div style=&quot;line-height: 27px;&quot;&gt;&lt;div style=&quot;line-height: 27px;&quot;&gt;&lt;div style=&quot;line-height: 27px;&quot;&gt;&lt;span style=&quot;color: rgba(0, 0, 0, 0); font-family: monospace; font-size: 0px; white-space-collapse: collapse; background-color: rgb(251, 251, 251);&quot;&gt;%3CmxGraphModel%3E%3Croot%3E%3CmxCell%20id%3D%220%22%2F%3E%3CmxCell%20id%3D%221%22%20parent%3D%220%22%2F%3E%3CmxCell%20id%3D%222%22%20value%3D%22%26lt%3Bdiv%20style%3D%26quot%3Bcolor%3A%20rgb(212%2C%20212%2C%20212)%3B%20background-color%3A%20rgb(30%2C%2030%2C%2030)%3B%20font-family%3A%20Menlo%2C%20Monaco%2C%20%26amp%3Bquot%3BCourier%20New%26amp%3Bquot%3B%2C%20monospace%3B%20font-size%3A%2018px%3B%20line-height%3A%2027px%3B%20white-space%3A%20pre%3B%26quot%3B%26gt%3B%26lt%3Bdiv%20style%3D%26quot%3Bline-height%3A%2027px%3B%26quot%3B%26gt%3B%26lt%3Bdiv%20style%3D%26quot%3Bline-height%3A%2027px%3B%26quot%3B%26gt%3B%26lt%3Bdiv%20style%3D%26quot%3Btext-align%3A%20left%3B%26quot%3B%26gt%3B%26lt%3Bdiv%20style%3D%26quot%3Bline-height%3A%2027px%3B%26quot%3B%26gt%3B%26lt%3Bdiv%20style%3D%26quot%3Bline-height%3A%2027px%3B%26quot%3B%26gt%3B%26lt%3Bdiv%20style%3D%26quot%3Bline-height%3A%2027px%3B%26quot%3B%26gt%3B%26lt%3Bdiv%26gt%3B%20%20%20%20%20%20%20%20%20%20%20%20%20%20%20%20%20%20%20%20real_data_temp%20%3D%20%5B%26lt%3B%2Fdiv%26gt%3B%26lt%3Bdiv%26gt%3B%20%20%20%20%20%20%20%20%20%20%20%20%20%20%20%20%20%20%20%20%20%20%20%20%5B%26lt%3B%2Fdiv%26gt%3B%26lt%3Bdiv%26gt%3B%20%20%20%20%20%20%20%20%20%20%20%20%20%20%20%20%20%20%20%20%20%20%20%20%20%20%20%20sentence%26lt%3B%2Fdiv%26gt%3B%26lt%3Bdiv%26gt%3B%20%20%20%20%20%20%20%20%20%20%20%20%20%20%20%20%20%20%20%20%20%20%20%20%20%20%20%20%26lt%3Bspan%20style%3D%26quot%3Bcolor%3A%20%23569cd6%3B%26quot%3B%26gt%3Bfor%26lt%3B%2Fspan%26gt%3B%20sentence%20%26lt%3Bspan%20style%3D%26quot%3Bcolor%3A%20%23569cd6%3B%26quot%3B%26gt%3Bin%26lt%3B%2Fspan%26gt%3B%20sublist%26lt%3B%2Fdiv%26gt%3B%26lt%3Bdiv%26gt%3B%20%20%20%20%20%20%20%20%20%20%20%20%20%20%20%20%20%20%20%20%20%20%20%20%20%20%20%20%26lt%3Bspan%20style%3D%26quot%3Bcolor%3A%20%23569cd6%3B%26quot%3B%26gt%3Bif%26lt%3B%2Fspan%26gt%3B%20len(sentence.split())%20%26amp%3Bgt%3B%3D%20%26lt%3Bspan%20style%3D%26quot%3Bcolor%3A%20%23b5cea8%3B%26quot%3B%26gt%3B5%26lt%3B%2Fspan%26gt%3B%26lt%3B%2Fdiv%26gt%3B%26lt%3Bdiv%26gt%3B%20%20%20%20%20%20%20%20%20%20%20%20%20%20%20%20%20%20%20%20%20%20%20%20%5D%26lt%3B%2Fdiv%26gt%3B%26lt%3Bdiv%26gt%3B%20%20%20%20%20%20%20%20%20%20%20%20%20%20%20%20%20%20%20%20%20%20%20%20%26lt%3Bspan%20style%3D%26quot%3Bcolor%3A%20%23569cd6%3B%26quot%3B%26gt%3Bfor%26lt%3B%2Fspan%26gt%3B%20sublist%20%26lt%3Bspan%20style%3D%26quot%3Bcolor%3A%20%23569cd6%3B%26quot%3B%26gt%3Bin%26lt%3B%2Fspan%26gt%3B%20real_data%5Btrain_real_length%3A%5D%26lt%3B%2Fdiv%26gt%3B%26lt%3Bdiv%26gt%3B%20%20%20%20%20%20%20%20%20%20%20%20%20%20%20%20%20%20%20%20%5D%26lt%3B%2Fdiv%26gt%3B%26lt%3Bdiv%26gt%3B%20%20%20%20%20%20%20%20%20%20%20%20%20%20%20%20%20%20%20%20generated_data_temp%20%3D%20%5B%26lt%3B%2Fdiv%26gt%3B%26lt%3Bdiv%26gt%3B%20%20%20%20%20%20%20%20%20%20%20%20%20%20%20%20%20%20%20%20%20%20%20%20%5B%26lt%3B%2Fdiv%26gt%3B%26lt%3Bdiv%26gt%3B%20%20%20%20%20%20%20%20%20%20%20%20%20%20%20%20%20%20%20%20%20%20%20%20%20%20%20%20sentence%26lt%3B%2Fdiv%26gt%3B%26lt%3Bdiv%26gt%3B%20%20%20%20%20%20%20%20%20%20%20%20%20%20%20%20%20%20%20%20%20%20%20%20%20%20%20%20%26lt%3Bspan%20style%3D%26quot%3Bcolor%3A%20%23569cd6%3B%26quot%3B%26gt%3Bfor%26lt%3B%2Fspan%26gt%3B%20sentence%20%26lt%3Bspan%20style%3D%26quot%3Bcolor%3A%20%23569cd6%3B%26quot%3B%26gt%3Bin%26lt%3B%2Fspan%26gt%3B%20sublist%26lt%3B%2Fdiv%26gt%3B%26lt%3Bdiv%26gt%3B%20%20%20%20%20%20%20%20%20%20%20%20%20%20%20%20%20%20%20%20%20%20%20%20%20%20%20%20%26lt%3Bspan%20style%3D%26quot%3Bcolor%3A%20%23569cd6%3B%26quot%3B%26gt%3Bif%26lt%3B%2Fspan%26gt%3B%20len(sentence.split())%20%26amp%3Bgt%3B%3D%20%26lt%3Bspan%20style%3D%26quot%3Bcolor%3A%20%23b5cea8%3B%26quot%3B%26gt%3B5%26lt%3B%2Fspan%26gt%3B%26lt%3B%2Fdiv%26gt%3B%26lt%3Bdiv%26gt%3B%20%20%20%20%20%20%20%20%20%20%20%20%20%20%20%20%20%20%20%20%20%20%20%20%5D%26lt%3B%2Fdiv%26gt%3B%26lt%3Bdiv%26gt%3B%20%20%20%20%20%20%20%20%20%20%20%20%20%20%20%20%20%20%20%20%20%20%20%20%26lt%3Bspan%20style%3D%26quot%3Bcolor%3A%20%23569cd6%3B%26quot%3B%26gt%3Bfor%26lt%3B%2Fspan%26gt%3B%20sublist%20%26lt%3Bspan%20style%3D%26quot%3Bcolor%3A%20%23569cd6%3B%26quot%3B%26gt%3Bin%26lt%3B%2Fspan%26gt%3B%20generated_data%5Btrain_length%3A%5D%26lt%3B%2Fdiv%26gt%3B%26lt%3Bdiv%26gt%3B%20%20%20%20%20%20%20%20%20%20%20%20%20%20%20%20%20%20%20%20%5D%26lt%3B%2Fdiv%26gt%3B%26lt%3B%2Fdiv%26gt%3B%26lt%3B%2Fdiv%26gt%3B%26lt%3B%2Fdiv%26gt%3B%26lt%3B%2Fdiv%26gt%3B%26lt%3B%2Fdiv%26gt%3B%26lt%3B%2Fdiv%26gt%3B%26lt%3B%2Fdiv%26gt%3B%22%20style%3D%22rounded%3D0%3BwhiteSpace%3Dwrap%3Bhtml%3D1%3B%22%20vertex%3D%221%22%20parent%3D%221%22%3E%3CmxGeometry%20x%3D%22-5780%22%20y%3D%22210%22%20width%3D%221100%22%20height%3D%22530%22%20as%3D%22geometry%22%2F%3E%3C%2FmxCell%3E%3C%2Froot%3E%3C%2FmxGraphModel%3E&lt;/span&gt;&lt;span style=&quot;background-color: light-dark(rgb(30, 30, 30), rgb(30, 30, 30)); color: light-dark(rgb(212, 212, 212), rgb(212, 212, 212));&quot;&gt;                    real_data = real&lt;/span&gt;&lt;/div&gt;&lt;div style=&quot;line-height: 27px;&quot;&gt;&lt;div&gt;                    generated_data = generated&lt;/div&gt;&lt;/div&gt;&lt;/div&gt;&lt;/div&gt;&lt;/div&gt;&lt;/div&gt;&lt;/div&gt;&lt;/div&gt;" style="rounded=0;whiteSpace=wrap;html=1;" parent="1" vertex="1">
          <mxGeometry x="-6980" y="210" width="1100" height="530" as="geometry" />
        </mxCell>
        <mxCell id="93p2crJ9IyBUAe-qTAvb-19" value="&lt;div style=&quot;color: rgb(212, 212, 212); background-color: rgb(30, 30, 30); font-family: Menlo, Monaco, &amp;quot;Courier New&amp;quot;, monospace; font-size: 18px; line-height: 27px; white-space: pre;&quot;&gt;&lt;div style=&quot;line-height: 27px;&quot;&gt;&lt;div style=&quot;line-height: 27px;&quot;&gt;&lt;div style=&quot;text-align: left;&quot;&gt;&lt;div style=&quot;line-height: 27px;&quot;&gt;&lt;div style=&quot;line-height: 27px;&quot;&gt;&lt;div style=&quot;line-height: 27px;&quot;&gt;&lt;div style=&quot;line-height: 27px;&quot;&gt;&lt;div&gt;                    real = [text &lt;span style=&quot;color: #569cd6;&quot;&gt;for&lt;/span&gt; text &lt;span style=&quot;color: #569cd6;&quot;&gt;in&lt;/span&gt; real_sent_token &lt;span style=&quot;color: #569cd6;&quot;&gt;if&lt;/span&gt; len(text) &amp;gt; &lt;span style=&quot;color: #b5cea8;&quot;&gt;0&lt;/span&gt;]&lt;/div&gt;&lt;div&gt;                    generated = [&lt;/div&gt;&lt;div&gt;                        text &lt;span style=&quot;color: #569cd6;&quot;&gt;for&lt;/span&gt; text &lt;span style=&quot;color: #569cd6;&quot;&gt;in&lt;/span&gt; generated_sent_token &lt;span style=&quot;color: #569cd6;&quot;&gt;if&lt;/span&gt; len(text) &amp;gt; &lt;span style=&quot;color: #b5cea8;&quot;&gt;0&lt;/span&gt;&lt;/div&gt;&lt;div&gt;                    ]&lt;/div&gt;&lt;/div&gt;&lt;/div&gt;&lt;/div&gt;&lt;/div&gt;&lt;/div&gt;&lt;/div&gt;&lt;/div&gt;&lt;/div&gt;" style="rounded=0;whiteSpace=wrap;html=1;" parent="1" vertex="1">
          <mxGeometry x="-8160" y="210" width="1100" height="530" as="geometry" />
        </mxCell>
        <mxCell id="93p2crJ9IyBUAe-qTAvb-20" value="&lt;div style=&quot;color: rgb(212, 212, 212); background-color: rgb(30, 30, 30); font-family: Menlo, Monaco, &amp;quot;Courier New&amp;quot;, monospace; font-size: 18px; line-height: 27px; white-space: pre;&quot;&gt;&lt;div style=&quot;line-height: 27px;&quot;&gt;&lt;div style=&quot;line-height: 27px;&quot;&gt;&lt;div style=&quot;text-align: left;&quot;&gt;&lt;div style=&quot;line-height: 27px;&quot;&gt;&lt;div style=&quot;line-height: 27px;&quot;&gt;&lt;div style=&quot;line-height: 27px;&quot;&gt;&lt;div style=&quot;line-height: 27px;&quot;&gt;&lt;div style=&quot;line-height: 27px;&quot;&gt;&lt;div&gt;                real_sent_token = [&lt;/div&gt;&lt;div&gt;                    (&lt;/div&gt;&lt;div&gt;                        nltk.sent_tokenize(text)[&lt;span style=&quot;color: #b5cea8;&quot;&gt;1&lt;/span&gt;:-&lt;span style=&quot;color: #b5cea8;&quot;&gt;1&lt;/span&gt;]&lt;/div&gt;&lt;div&gt;                        &lt;span style=&quot;color: #569cd6;&quot;&gt;if&lt;/span&gt; target_dataset &lt;span style=&quot;color: #569cd6;&quot;&gt;in&lt;/span&gt; [&lt;span style=&quot;color: #ce9178;&quot;&gt;&quot;HC3&quot;&lt;/span&gt;, &lt;span style=&quot;color: #ce9178;&quot;&gt;&quot;RAID&quot;&lt;/span&gt;]&lt;/div&gt;&lt;div&gt;                        &lt;span style=&quot;color: #569cd6;&quot;&gt;else&lt;/span&gt; nltk.sent_tokenize(text)&lt;/div&gt;&lt;div&gt;                    )&lt;/div&gt;&lt;div&gt;                    &lt;span style=&quot;color: #569cd6;&quot;&gt;for&lt;/span&gt; text &lt;span style=&quot;color: #569cd6;&quot;&gt;in&lt;/span&gt; real&lt;/div&gt;&lt;div&gt;                ]&lt;/div&gt;&lt;div&gt;                generated_sent_token = [&lt;/div&gt;&lt;div&gt;                    (&lt;/div&gt;&lt;div&gt;                        nltk.sent_tokenize(text)[&lt;span style=&quot;color: #b5cea8;&quot;&gt;1&lt;/span&gt;:-&lt;span style=&quot;color: #b5cea8;&quot;&gt;1&lt;/span&gt;]&lt;/div&gt;&lt;div&gt;                        &lt;span style=&quot;color: #569cd6;&quot;&gt;if&lt;/span&gt; target_dataset &lt;span style=&quot;color: #569cd6;&quot;&gt;in&lt;/span&gt; [&lt;span style=&quot;color: #ce9178;&quot;&gt;&quot;HC3&quot;&lt;/span&gt;, &lt;span style=&quot;color: #ce9178;&quot;&gt;&quot;RAID&quot;&lt;/span&gt;]&lt;/div&gt;&lt;div&gt;                        &lt;span style=&quot;color: #569cd6;&quot;&gt;else&lt;/span&gt; nltk.sent_tokenize(text)&lt;/div&gt;&lt;div&gt;                    )&lt;/div&gt;&lt;div&gt;                    &lt;span style=&quot;color: #569cd6;&quot;&gt;for&lt;/span&gt; text &lt;span style=&quot;color: #569cd6;&quot;&gt;in&lt;/span&gt; generated&lt;/div&gt;&lt;div&gt;                ]&lt;/div&gt;&lt;/div&gt;&lt;/div&gt;&lt;/div&gt;&lt;/div&gt;&lt;/div&gt;&lt;/div&gt;&lt;/div&gt;&lt;/div&gt;&lt;/div&gt;" style="rounded=0;whiteSpace=wrap;html=1;" parent="1" vertex="1">
          <mxGeometry x="-9310" y="210" width="1100" height="530" as="geometry" />
        </mxCell>
        <mxCell id="93p2crJ9IyBUAe-qTAvb-21" value="&lt;div style=&quot;color: rgb(212, 212, 212); background-color: rgb(30, 30, 30); font-family: Menlo, Monaco, &amp;quot;Courier New&amp;quot;, monospace; font-size: 18px; line-height: 27px; white-space: pre;&quot;&gt;&lt;div style=&quot;line-height: 27px;&quot;&gt;&lt;div style=&quot;line-height: 27px;&quot;&gt;&lt;div style=&quot;text-align: left;&quot;&gt;&lt;div style=&quot;line-height: 27px;&quot;&gt;&lt;div style=&quot;line-height: 27px;&quot;&gt;&lt;div style=&quot;line-height: 27px;&quot;&gt;&lt;div style=&quot;line-height: 27px;&quot;&gt;&lt;div style=&quot;line-height: 27px;&quot;&gt;&lt;div style=&quot;line-height: 27px;&quot;&gt;&lt;div&gt;            real = data[&lt;/div&gt;&lt;div&gt;                &lt;span style=&quot;color: #ce9178;&quot;&gt;&quot;original&quot;&lt;/span&gt;&lt;/div&gt;&lt;div&gt;            ]  &lt;span style=&quot;color: #6a9955;&quot;&gt;# [:args.train_real_num]  len== n_samples, many sentences of words&lt;/span&gt;&lt;/div&gt;&lt;div&gt;            generated = data[&lt;span style=&quot;color: #ce9178;&quot;&gt;&quot;sampled&quot;&lt;/span&gt;]  &lt;span style=&quot;color: #6a9955;&quot;&gt;# [:args.train_real_num]&lt;/span&gt;&lt;/div&gt;&lt;/div&gt;&lt;/div&gt;&lt;/div&gt;&lt;/div&gt;&lt;/div&gt;&lt;/div&gt;&lt;/div&gt;&lt;/div&gt;&lt;/div&gt;&lt;/div&gt;" style="rounded=0;whiteSpace=wrap;html=1;" parent="1" vertex="1">
          <mxGeometry x="-10480" y="210" width="1100" height="530" as="geometry" />
        </mxCell>
        <mxCell id="93p2crJ9IyBUAe-qTAvb-36" style="edgeStyle=orthogonalEdgeStyle;rounded=0;orthogonalLoop=1;jettySize=auto;html=1;exitX=0.5;exitY=1;exitDx=0;exitDy=0;entryX=0.25;entryY=0;entryDx=0;entryDy=0;" parent="1" source="93p2crJ9IyBUAe-qTAvb-22" target="93p2crJ9IyBUAe-qTAvb-44" edge="1">
          <mxGeometry relative="1" as="geometry">
            <mxPoint x="-8840" y="1660" as="targetPoint" />
          </mxGeometry>
        </mxCell>
        <mxCell id="93p2crJ9IyBUAe-qTAvb-37" value="Text" style="edgeLabel;html=1;align=center;verticalAlign=middle;resizable=0;points=[];" parent="93p2crJ9IyBUAe-qTAvb-36" vertex="1" connectable="0">
          <mxGeometry x="-0.1961" y="-1" relative="1" as="geometry">
            <mxPoint as="offset" />
          </mxGeometry>
        </mxCell>
        <mxCell id="93p2crJ9IyBUAe-qTAvb-41" value="feature_input" style="edgeLabel;html=1;align=center;verticalAlign=middle;resizable=0;points=[];" parent="93p2crJ9IyBUAe-qTAvb-36" vertex="1" connectable="0">
          <mxGeometry x="0.7166" y="-1" relative="1" as="geometry">
            <mxPoint y="-28" as="offset" />
          </mxGeometry>
        </mxCell>
        <mxCell id="93p2crJ9IyBUAe-qTAvb-22" value="User Input" style="rounded=0;whiteSpace=wrap;html=1;" parent="1" vertex="1">
          <mxGeometry x="-8900" y="1220" width="120" height="60" as="geometry" />
        </mxCell>
        <mxCell id="93p2crJ9IyBUAe-qTAvb-29" style="edgeStyle=orthogonalEdgeStyle;rounded=0;orthogonalLoop=1;jettySize=auto;html=1;exitX=0.5;exitY=1;exitDx=0;exitDy=0;" parent="1" source="93p2crJ9IyBUAe-qTAvb-23" target="93p2crJ9IyBUAe-qTAvb-22" edge="1">
          <mxGeometry relative="1" as="geometry" />
        </mxCell>
        <mxCell id="93p2crJ9IyBUAe-qTAvb-30" style="edgeStyle=orthogonalEdgeStyle;rounded=0;orthogonalLoop=1;jettySize=auto;html=1;exitX=0.5;exitY=1;exitDx=0;exitDy=0;" parent="1" source="93p2crJ9IyBUAe-qTAvb-23" target="93p2crJ9IyBUAe-qTAvb-24" edge="1">
          <mxGeometry relative="1" as="geometry" />
        </mxCell>
        <mxCell id="93p2crJ9IyBUAe-qTAvb-23" value="Start" style="ellipse;whiteSpace=wrap;html=1;" parent="1" vertex="1">
          <mxGeometry x="-8740" y="1030" width="120" height="80" as="geometry" />
        </mxCell>
        <mxCell id="93p2crJ9IyBUAe-qTAvb-27" style="edgeStyle=orthogonalEdgeStyle;rounded=0;orthogonalLoop=1;jettySize=auto;html=1;exitX=0.5;exitY=1;exitDx=0;exitDy=0;" parent="1" source="93p2crJ9IyBUAe-qTAvb-24" target="93p2crJ9IyBUAe-qTAvb-26" edge="1">
          <mxGeometry relative="1" as="geometry" />
        </mxCell>
        <mxCell id="93p2crJ9IyBUAe-qTAvb-28" style="edgeStyle=orthogonalEdgeStyle;rounded=0;orthogonalLoop=1;jettySize=auto;html=1;exitX=0.5;exitY=1;exitDx=0;exitDy=0;" parent="1" source="93p2crJ9IyBUAe-qTAvb-24" target="93p2crJ9IyBUAe-qTAvb-25" edge="1">
          <mxGeometry relative="1" as="geometry" />
        </mxCell>
        <mxCell id="93p2crJ9IyBUAe-qTAvb-48" value="reader" style="edgeLabel;html=1;align=center;verticalAlign=middle;resizable=0;points=[];" parent="93p2crJ9IyBUAe-qTAvb-28" vertex="1" connectable="0">
          <mxGeometry x="-0.5712" y="-1" relative="1" as="geometry">
            <mxPoint as="offset" />
          </mxGeometry>
        </mxCell>
        <mxCell id="93p2crJ9IyBUAe-qTAvb-24" value="HC3" style="rounded=0;whiteSpace=wrap;html=1;" parent="1" vertex="1">
          <mxGeometry x="-8600" y="1220" width="120" height="60" as="geometry" />
        </mxCell>
        <mxCell id="93p2crJ9IyBUAe-qTAvb-34" style="edgeStyle=orthogonalEdgeStyle;rounded=0;orthogonalLoop=1;jettySize=auto;html=1;exitX=0.5;exitY=1;exitDx=0;exitDy=0;entryX=0.75;entryY=0;entryDx=0;entryDy=0;" parent="1" source="93p2crJ9IyBUAe-qTAvb-25" target="93p2crJ9IyBUAe-qTAvb-44" edge="1">
          <mxGeometry relative="1" as="geometry">
            <mxPoint x="-8439.473684210527" y="1660" as="targetPoint" />
          </mxGeometry>
        </mxCell>
        <mxCell id="93p2crJ9IyBUAe-qTAvb-35" value="Text" style="edgeLabel;html=1;align=center;verticalAlign=middle;resizable=0;points=[];" parent="93p2crJ9IyBUAe-qTAvb-34" vertex="1" connectable="0">
          <mxGeometry x="-0.5956" y="1" relative="1" as="geometry">
            <mxPoint as="offset" />
          </mxGeometry>
        </mxCell>
        <mxCell id="93p2crJ9IyBUAe-qTAvb-43" value="feature_HWT" style="edgeLabel;html=1;align=center;verticalAlign=middle;resizable=0;points=[];" parent="93p2crJ9IyBUAe-qTAvb-34" vertex="1" connectable="0">
          <mxGeometry x="0.6026" y="-1" relative="1" as="geometry">
            <mxPoint as="offset" />
          </mxGeometry>
        </mxCell>
        <mxCell id="93p2crJ9IyBUAe-qTAvb-25" value="HWT" style="rounded=0;whiteSpace=wrap;html=1;" parent="1" vertex="1">
          <mxGeometry x="-8500" y="1340" width="120" height="60" as="geometry" />
        </mxCell>
        <mxCell id="93p2crJ9IyBUAe-qTAvb-32" style="edgeStyle=orthogonalEdgeStyle;rounded=0;orthogonalLoop=1;jettySize=auto;html=1;exitX=0.5;exitY=1;exitDx=0;exitDy=0;entryX=0.5;entryY=0;entryDx=0;entryDy=0;" parent="1" source="93p2crJ9IyBUAe-qTAvb-26" target="93p2crJ9IyBUAe-qTAvb-44" edge="1">
          <mxGeometry relative="1" as="geometry">
            <mxPoint x="-8690" y="1750" as="targetPoint" />
            <Array as="points">
              <mxPoint x="-8620" y="1530" />
              <mxPoint x="-8619" y="1530" />
              <mxPoint x="-8619" y="1750" />
              <mxPoint x="-8660" y="1750" />
            </Array>
          </mxGeometry>
        </mxCell>
        <mxCell id="93p2crJ9IyBUAe-qTAvb-33" value="Text" style="edgeLabel;html=1;align=center;verticalAlign=middle;resizable=0;points=[];" parent="93p2crJ9IyBUAe-qTAvb-32" vertex="1" connectable="0">
          <mxGeometry x="-0.6615" y="-1" relative="1" as="geometry">
            <mxPoint as="offset" />
          </mxGeometry>
        </mxCell>
        <mxCell id="93p2crJ9IyBUAe-qTAvb-42" value="feature_MGT" style="edgeLabel;html=1;align=center;verticalAlign=middle;resizable=0;points=[];" parent="93p2crJ9IyBUAe-qTAvb-32" vertex="1" connectable="0">
          <mxGeometry x="0.6056" y="2" relative="1" as="geometry">
            <mxPoint x="28" y="-13" as="offset" />
          </mxGeometry>
        </mxCell>
        <mxCell id="93p2crJ9IyBUAe-qTAvb-26" value="MGT" style="rounded=0;whiteSpace=wrap;html=1;" parent="1" vertex="1">
          <mxGeometry x="-8680" y="1340" width="120" height="60" as="geometry" />
        </mxCell>
        <mxCell id="93p2crJ9IyBUAe-qTAvb-31" value="Feature Extrator" style="rounded=0;whiteSpace=wrap;html=1;" parent="1" vertex="1">
          <mxGeometry x="-9050" y="1510" width="760" height="60" as="geometry" />
        </mxCell>
        <mxCell id="93p2crJ9IyBUAe-qTAvb-46" style="edgeStyle=orthogonalEdgeStyle;rounded=0;orthogonalLoop=1;jettySize=auto;html=1;exitX=0.5;exitY=1;exitDx=0;exitDy=0;" parent="1" source="93p2crJ9IyBUAe-qTAvb-44" target="93p2crJ9IyBUAe-qTAvb-47" edge="1">
          <mxGeometry relative="1" as="geometry">
            <mxPoint x="-8659.473684210527" y="1990" as="targetPoint" />
          </mxGeometry>
        </mxCell>
        <mxCell id="93p2crJ9IyBUAe-qTAvb-44" value="&lt;div style=&quot;color: rgb(212, 212, 212); background-color: rgb(30, 30, 30); font-family: Menlo, Monaco, &amp;quot;Courier New&amp;quot;, monospace; font-size: 18px; line-height: 27px; white-space: pre;&quot;&gt;MMD_3_Sample_Test&lt;/div&gt;" style="rounded=0;whiteSpace=wrap;html=1;" parent="1" vertex="1">
          <mxGeometry x="-9040" y="1850" width="760" height="60" as="geometry" />
        </mxCell>
        <mxCell id="93p2crJ9IyBUAe-qTAvb-47" value="Result" style="ellipse;whiteSpace=wrap;html=1;" parent="1" vertex="1">
          <mxGeometry x="-8720" y="1980" width="120" height="80" as="geometry" />
        </mxCell>
        <mxCell id="rcONKawTcqT4GSlHWdXH-1" value="&lt;div style=&quot;color: rgb(212, 212, 212); background-color: rgb(30, 30, 30); font-family: Menlo, Monaco, &amp;quot;Courier New&amp;quot;, monospace; font-weight: normal; font-size: 18px; line-height: 27px; white-space: pre;&quot;&gt;&lt;br&gt;&lt;/div&gt;" style="text;whiteSpace=wrap;html=1;" vertex="1" parent="1">
          <mxGeometry x="-11020" y="120" width="280" height="50" as="geometry" />
        </mxCell>
        <mxCell id="rcONKawTcqT4GSlHWdXH-2" value="&lt;div style=&quot;color: rgb(212, 212, 212); background-color: rgb(30, 30, 30); font-family: Menlo, Monaco, &amp;quot;Courier New&amp;quot;, monospace; font-size: 18px; line-height: 27px; white-space: pre;&quot;&gt;&lt;div style=&quot;line-height: 27px;&quot;&gt;&lt;div style=&quot;line-height: 27px;&quot;&gt;&lt;div style=&quot;text-align: left;&quot;&gt;&lt;div style=&quot;line-height: 27px;&quot;&gt;&lt;div style=&quot;line-height: 27px;&quot;&gt;&lt;div style=&quot;line-height: 27px;&quot;&gt;&lt;div style=&quot;line-height: 27px;&quot;&gt;&lt;div style=&quot;line-height: 27px;&quot;&gt;&lt;div style=&quot;line-height: 27px;&quot;&gt;data = load_HC3(data_o)&lt;/div&gt;&lt;/div&gt;&lt;/div&gt;&lt;/div&gt;&lt;/div&gt;&lt;/div&gt;&lt;/div&gt;&lt;/div&gt;&lt;/div&gt;&lt;/div&gt;" style="rounded=0;whiteSpace=wrap;html=1;" vertex="1" parent="1">
          <mxGeometry x="-11700" y="210" width="1100" height="530" as="geometry" />
        </mxCell>
        <mxCell id="rcONKawTcqT4GSlHWdXH-3" value="&lt;div style=&quot;color: rgb(212, 212, 212); background-color: rgb(30, 30, 30); font-family: Menlo, Monaco, &amp;quot;Courier New&amp;quot;, monospace; font-size: 18px; line-height: 27px; white-space: pre;&quot;&gt;&lt;div style=&quot;line-height: 27px;&quot;&gt;&lt;div style=&quot;line-height: 27px;&quot;&gt;&lt;div style=&quot;text-align: left;&quot;&gt;&lt;div style=&quot;line-height: 27px;&quot;&gt;&lt;div style=&quot;line-height: 27px;&quot;&gt;&lt;div style=&quot;line-height: 27px;&quot;&gt;&lt;div style=&quot;line-height: 27px;&quot;&gt;&lt;div style=&quot;line-height: 27px;&quot;&gt;&lt;div style=&quot;line-height: 27px;&quot;&gt;&lt;div style=&quot;line-height: 27px;&quot;&gt;&lt;div&gt;&lt;span style=&quot;color: #569cd6;&quot;&gt;def&lt;/span&gt; load_HC3(data_o, long_train_threshold_low=&lt;span style=&quot;color: #b5cea8;&quot;&gt;150&lt;/span&gt;, long_train_threshold_high=&lt;span style=&quot;color: #b5cea8;&quot;&gt;512&lt;/span&gt;):&lt;/div&gt;&lt;div&gt;&lt;/div&gt;&lt;/div&gt;&lt;/div&gt;&lt;/div&gt;&lt;/div&gt;&lt;/div&gt;&lt;/div&gt;&lt;/div&gt;&lt;/div&gt;&lt;/div&gt;&lt;/div&gt;&lt;/div&gt;" style="rounded=0;whiteSpace=wrap;html=1;" vertex="1" parent="1">
          <mxGeometry x="-12880" y="210" width="1100" height="530" as="geometry" />
        </mxCell>
      </root>
    </mxGraphModel>
  </diagram>
</mxfile>
